<svg width="31" height="29" fill="none" xmlns="http://www.w3.org/2000/svg"><path d="M20.344.574c-5.451 0-9.925 3.758-10.271 8.492C4.882 9.326 0 13.07 0 18.133c0 2.116.837 4.166 2.361 5.79a3.682 3.682 0 01-.973 3.47.606.606 0 00.428 1.033 6.68 6.68 0 004.628-1.87c1.204.41 2.776.659 4.212.659 5.45 0 9.924-3.757 10.27-8.49 1.269-.056 2.587-.29 3.63-.646a6.678 6.678 0 004.628 1.87.605.605 0 00.428-1.033 3.682 3.682 0 01-.973-3.47C30.163 13.822 31 11.773 31 9.657 31 4.396 25.742.574 20.344.574zm-9.688 25.43c-1.429 0-3.057-.28-4.148-.715a.606.606 0 00-.67.154 5.463 5.463 0 01-2.718 1.613 4.897 4.897 0 00.37-3.604.605.605 0 00-.149-.256c-1.373-1.415-2.13-3.213-2.13-5.063 0-4.267 4.325-7.871 9.445-7.871 4.835 0 9.082 3.362 9.082 7.87 0 4.341-4.074 7.872-9.082 7.872zM27.66 14.719a.608.608 0 00-.148.256 4.897 4.897 0 00.369 3.604 5.462 5.462 0 01-2.717-1.612.606.606 0 00-.671-.154c-.945.376-2.294.636-3.567.7-.177-2.29-1.32-4.443-3.272-6.04h7.898a.605.605 0 000-1.211h-9.758a11.292 11.292 0 00-4.506-1.193c.348-4.067 4.277-7.284 9.057-7.284 5.12 0 9.445 3.605 9.445 7.871 0 1.85-.757 3.649-2.13 5.063z" fill="#37373F"/></svg>