<svg width="35" height="28" fill="none" xmlns="http://www.w3.org/2000/svg"><path d="M32.95 5.333h-7.508l-2.167-4.227A2.046 2.046 0 0021.44 0h-7.88c-.782 0-1.485.424-1.835 1.106L9.558 5.333H8.203v-.666c0-1.103-.92-2-2.05-2H4.784c-1.13 0-2.05.897-2.05 2v.666H2.05c-1.13 0-2.05.898-2.05 2V26c0 1.103.92 2 2.05 2h30.9c1.13 0 2.05-.897 2.05-2V7.333c0-1.102-.92-2-2.05-2zm-31.583 6.66h8.644a8.492 8.492 0 000 9.34H1.367v-9.34zm8.613 4.674c0-4.08 3.404-7.334 7.52-7.334 4.11 0 7.52 3.248 7.52 7.334 0 4.08-3.405 7.333-7.52 7.333-4.12 0-7.52-3.256-7.52-7.333zm16.407 0c0-1.668-.49-3.283-1.398-4.667h8.644v9.333h-8.644a8.492 8.492 0 001.398-4.666zM12.948 1.702a.682.682 0 01.612-.369h7.88c.26 0 .495.142.612.37l1.861 3.63H11.086l1.862-3.63zM4.102 4.667c0-.368.306-.667.683-.667h1.367c.377 0 .684.3.684.667v.666H4.102v-.666zm-2.051 2h30.898c.377 0 .684.299.684.666v3.334H23.91A9.003 9.003 0 0017.5 8c-2.422 0-4.74.969-6.41 2.667H1.367V7.333c0-.367.307-.666.684-.666zm30.898 20H2.051A.676.676 0 011.367 26v-3.333h9.723a9.003 9.003 0 006.41 2.666c2.422 0 4.74-.968 6.41-2.666h9.723V26a.676.676 0 01-.684.667z" fill="#37373F"/></svg>