<svg width="34" height="31" fill="none" xmlns="http://www.w3.org/2000/svg"><path d="M29.262 25.237c2.52-2.71 3.907-6.169 3.907-9.737 0-8.248-7.254-14.958-16.17-14.958C8.081.542.828 7.252.828 15.5c0 8.247 7.253 14.957 16.17 14.957 3.857 0 7.596-1.283 10.526-3.613a.675.675 0 01.891.054c.313-.268.615-.547.905-.836a.56.56 0 01-.059-.825zM16.36 2.314c0-.326.286-.59.638-.59.353 0 .639.264.639.59v2.361c0 .327-.286.59-.639.59-.352 0-.638-.263-.638-.59V2.314zM5.296 16.09H2.743c-.352 0-.638-.264-.638-.59 0-.326.286-.59.638-.59h2.553c.353 0 .639.264.639.59 0 .326-.286.59-.639.59zm12.34 12.596c0 .326-.285.59-.638.59-.352 0-.638-.264-.638-.59v-2.362c0-.326.286-.59.638-.59.353 0 .639.264.639.59v2.362zM27.53 8.263l-8.227 7.61c-.191 1.016-1.152 1.792-2.305 1.792-.414 0-.802-.1-1.14-.275l-6.68 6.178a.664.664 0 01-.45.173.663.663 0 01-.452-.173.56.56 0 010-.835l6.68-6.178a2.048 2.048 0 01-.263-.682l-5.518-5.105a.56.56 0 010-.835l1.805-1.67c.25-.23.654-.23.903 0l5.518 5.105.081.014.87-.804a.56.56 0 010-.835l6.47-5.985a.665.665 0 01.451-.173c.17 0 .332.063.451.173l1.806 1.67a.56.56 0 010 .835zm1.17 7.827c-.352 0-.638-.264-.638-.59 0-.326.286-.59.639-.59h2.553c.352 0 .638.264.638.59 0 .326-.286.59-.638.59H28.7z" fill="#C7C7C7"/><path d="M29.262 25.237c2.52-2.71 3.907-6.169 3.907-9.737 0-8.248-7.254-14.958-16.17-14.958C8.081.542.828 7.252.828 15.5c0 8.247 7.253 14.957 16.17 14.957 3.857 0 7.596-1.283 10.526-3.613a.675.675 0 01.891.054c.313-.268.615-.547.905-.836a.56.56 0 01-.059-.825zM16.36 2.314c0-.326.286-.59.638-.59.353 0 .639.264.639.59v2.361c0 .327-.286.59-.639.59-.352 0-.638-.263-.638-.59V2.314zM5.296 16.09H2.743c-.352 0-.638-.264-.638-.59 0-.326.286-.59.638-.59h2.553c.353 0 .639.264.639.59 0 .326-.286.59-.639.59zm12.34 12.596c0 .326-.285.59-.638.59-.352 0-.638-.264-.638-.59v-2.362c0-.326.286-.59.638-.59.353 0 .639.264.639.59v2.362zM27.53 8.263l-8.227 7.61c-.191 1.016-1.152 1.792-2.305 1.792-.414 0-.802-.1-1.14-.275l-6.68 6.178a.664.664 0 01-.45.173.663.663 0 01-.452-.173.56.56 0 010-.835l6.68-6.178a2.048 2.048 0 01-.263-.682l-5.518-5.105a.56.56 0 010-.835l1.805-1.67c.25-.23.654-.23.903 0l5.518 5.105.081.014.87-.804a.56.56 0 010-.835l6.47-5.985a.665.665 0 01.451-.173c.17 0 .332.063.451.173l1.806 1.67a.56.56 0 010 .835zm1.17 7.827c-.352 0-.638-.264-.638-.59 0-.326.286-.59.639-.59h2.553c.352 0 .638.264.638.59 0 .326-.286.59-.638.59H28.7z" fill="url(#paint0_linear)"/><defs><linearGradient id="paint0_linear" x1="16.998" y1=".542" x2="16.998" y2="30.457" gradientUnits="userSpaceOnUse"><stop stop-color="#fff"/><stop offset="1" stop-color="#fff" stop-opacity="0"/></linearGradient></defs></svg>