<svg width="11" height="19" viewBox="0 0 11 19" fill="none" xmlns="http://www.w3.org/2000/svg">
<path fill-rule="evenodd" clip-rule="evenodd" d="M9.6461 10.4404L2.0981 18.6104C1.98899 18.733 1.85515 18.8312 1.70537 18.8984C1.55559 18.9657 1.39329 19.0005 1.22911 19.0005C1.06494 19.0005 0.902616 18.9657 0.752838 18.8984C0.603061 18.8312 0.469217 18.733 0.360107 18.6104C0.128171 18.3502 -4.31401e-08 18.0136 -5.83743e-08 17.665C-7.36085e-08 17.3165 0.128171 16.9804 0.360107 16.7202L7.03911 9.5L0.360107 2.27002C0.128269 2.01181 2.97603e-05 1.67709 2.97452e-05 1.33008C2.973e-05 0.983063 0.128269 0.648346 0.360107 0.390137C0.469308 0.267441 0.603237 0.169291 0.753097 0.102051C0.902956 0.034811 1.06534 -4.65677e-08 1.2296 -5.37475e-08C1.39385 -6.09272e-08 1.55626 0.034811 1.70611 0.102051C1.85597 0.16929 1.9899 0.267441 2.09911 0.390137L9.6461 8.55029C9.87858 8.81208 10.0067 9.14989 10.0061 9.5C10.0083 9.84741 9.87983 10.1834 9.6461 10.4404Z" fill="#C7C7C7"/>
</svg>
