<svg width="15" height="15" viewBox="0 0 15 15" fill="none" xmlns="http://www.w3.org/2000/svg">
<path fill-rule="evenodd" clip-rule="evenodd" d="M13.6714 1.47139H11.7892V0.603433C11.7892 0.488847 11.7437 0.378953 11.6626 0.297928C11.5816 0.216903 11.4717 0.171387 11.3572 0.171387C11.2426 0.171387 11.1327 0.216903 11.0517 0.297928C10.9707 0.378953 10.9251 0.488847 10.9251 0.603433V1.47139H8.31777V0.603433C8.31777 0.488847 8.27223 0.378953 8.19121 0.297928C8.1102 0.216903 8.0003 0.171387 7.88573 0.171387C7.77115 0.171387 7.66126 0.216903 7.58025 0.297928C7.49923 0.378953 7.45368 0.488847 7.45368 0.603433V1.47139H4.84634V0.603433C4.84634 0.488847 4.8008 0.378953 4.71978 0.297928C4.63877 0.216903 4.52887 0.171387 4.4143 0.171387C4.29973 0.171387 4.18983 0.216903 4.10882 0.297928C4.0278 0.378953 3.98225 0.488847 3.98225 0.603433V1.47139H2.10001C1.79312 1.47139 1.49888 1.59332 1.28188 1.81035C1.06487 2.02738 0.942871 2.32173 0.942871 2.62866V12.8998C0.942871 13.2068 1.06487 13.5011 1.28188 13.7181C1.49888 13.9352 1.79312 14.0571 2.10001 14.0571H13.6714C13.9783 14.0571 14.2726 13.9352 14.4896 13.7181C14.7066 13.5011 14.8286 13.2068 14.8286 12.8998V2.62866C14.8286 2.32173 14.7066 2.02738 14.4896 1.81035C14.2726 1.59332 13.9783 1.47139 13.6714 1.47139ZM13.957 12.8998C13.9576 12.9377 13.9507 12.9752 13.9366 13.0104C13.9225 13.0455 13.9014 13.0775 13.8748 13.1044C13.8483 13.1313 13.8167 13.1527 13.7818 13.1673C13.7469 13.1818 13.7093 13.1893 13.6714 13.1891H2.10001C2.02281 13.1896 1.94855 13.1593 1.8936 13.1051C1.83864 13.0509 1.80757 12.977 1.80696 12.8998V2.62866C1.80757 2.55145 1.83864 2.47763 1.8936 2.42339C1.94855 2.36916 2.02281 2.33893 2.10001 2.33934H3.98225V3.20729C3.98225 3.32188 4.0278 3.43177 4.10882 3.5128C4.18983 3.59382 4.29973 3.63934 4.4143 3.63934C4.52887 3.63934 4.63877 3.59382 4.71978 3.5128C4.8008 3.43177 4.84634 3.32188 4.84634 3.20729V2.33934H7.45368V3.20729C7.45368 3.32188 7.49923 3.43177 7.58025 3.5128C7.66126 3.59382 7.77115 3.63934 7.88573 3.63934C8.0003 3.63934 8.1102 3.59382 8.19121 3.5128C8.27223 3.43177 8.31777 3.32188 8.31777 3.20729V2.33934H10.9251V3.20729C10.9251 3.32188 10.9707 3.43177 11.0517 3.5128C11.1327 3.59382 11.2426 3.63934 11.3572 3.63934C11.4717 3.63934 11.5816 3.59382 11.6626 3.5128C11.7437 3.43177 11.7892 3.32188 11.7892 3.20729V2.33934H13.6714C13.7093 2.33923 13.7469 2.34667 13.7818 2.36122C13.8167 2.37577 13.8483 2.39714 13.8748 2.42408C13.9014 2.45102 13.9225 2.48299 13.9366 2.51812C13.9507 2.55324 13.9576 2.59082 13.957 2.62866V12.8998ZM3.98225 5.37757H5.71797V6.67911H3.98225V5.37757ZM3.98225 7.54706H5.71797V8.84938H3.98225V7.54706ZM3.98225 9.71733H5.71797V11.0189H3.98225V9.71733ZM7.0141 9.71733H8.74982V11.0189H7.0141V9.71733ZM7.0141 7.54706H8.74982V8.84938H7.0141V7.54706ZM7.0141 5.37757H8.74982V6.67911H7.0141V5.37757ZM10.0535 9.71733H11.7892V11.0189H10.0535V9.71733ZM10.0535 7.54706H11.7892V8.84938H10.0535V7.54706ZM10.0535 5.37757H11.7892V6.67911H10.0535V5.37757Z" fill="#FC9B09"/>
</svg>
