<svg width="118" height="17" viewBox="0 0 118 17" fill="none" xmlns="http://www.w3.org/2000/svg">
<path d="M17.2168 5.79584L12.2598 5.32991C11.9473 5.30167 11.6774 5.10401 11.5496 4.80751L9.77417 0.529461C9.4901 -0.176487 8.48164 -0.176487 8.19757 0.529461L6.43632 4.80751C6.3227 5.10401 6.03862 5.30167 5.72615 5.32991L0.769095 5.79584C0.0305089 5.86643 -0.267766 6.78417 0.286173 7.27833L4.02172 10.5398C4.26318 10.7516 4.3626 11.0622 4.29158 11.3728L3.1695 15.9474C2.99906 16.6674 3.78025 17.2604 4.43362 16.8792L8.56686 14.4649C8.83673 14.3096 9.16341 14.3096 9.43328 14.4649L13.5665 16.8792C14.2199 17.2604 15.0011 16.6816 14.8306 15.9474L13.7228 11.3728C13.6517 11.0622 13.7512 10.7516 13.9926 10.5398L17.7282 7.27833C18.2679 6.78417 17.9554 5.86643 17.2168 5.79584Z" fill="#FC9B09"/>
<path d="M42.2168 5.79584L37.2598 5.32991C36.9473 5.30167 36.6774 5.10401 36.5496 4.80751L34.7742 0.529461C34.4901 -0.176487 33.4816 -0.176487 33.1976 0.529461L31.4363 4.80751C31.3227 5.10401 31.0386 5.30167 30.7261 5.32991L25.7691 5.79584C25.0305 5.86643 24.7322 6.78417 25.2862 7.27833L29.0217 10.5398C29.2632 10.7516 29.3626 11.0622 29.2916 11.3728L28.1695 15.9474C27.9991 16.6674 28.7803 17.2604 29.4336 16.8792L33.5669 14.4649C33.8367 14.3096 34.1634 14.3096 34.4333 14.4649L38.5665 16.8792C39.2199 17.2604 40.0011 16.6816 39.8306 15.9474L38.7228 11.3728C38.6517 11.0622 38.7512 10.7516 38.9926 10.5398L42.7282 7.27833C43.2679 6.78417 42.9554 5.86643 42.2168 5.79584Z" fill="#FC9B09"/>
<path d="M67.2168 5.79584L62.2598 5.32991C61.9473 5.30167 61.6774 5.10401 61.5496 4.80751L59.7742 0.529461C59.4901 -0.176487 58.4816 -0.176487 58.1976 0.529461L56.4363 4.80751C56.3227 5.10401 56.0386 5.30167 55.7261 5.32991L50.7691 5.79584C50.0305 5.86643 49.7322 6.78417 50.2862 7.27833L54.0217 10.5398C54.2632 10.7516 54.3626 11.0622 54.2916 11.3728L53.1695 15.9474C52.9991 16.6674 53.7803 17.2604 54.4336 16.8792L58.5669 14.4649C58.8367 14.3096 59.1634 14.3096 59.4333 14.4649L63.5665 16.8792C64.2199 17.2604 65.0011 16.6816 64.8306 15.9474L63.7228 11.3728C63.6517 11.0622 63.7512 10.7516 63.9926 10.5398L67.7282 7.27833C68.2679 6.78417 67.9554 5.86643 67.2168 5.79584Z" fill="#FC9B09"/>
<path d="M92.2168 5.79584L87.2598 5.32991C86.9473 5.30167 86.6774 5.10401 86.5496 4.80751L84.7742 0.529461C84.4901 -0.176487 83.4816 -0.176487 83.1976 0.529461L81.4363 4.80751C81.3227 5.10401 81.0386 5.30167 80.7261 5.32991L75.7691 5.79584C75.0305 5.86643 74.7322 6.78417 75.2862 7.27833L79.0217 10.5398C79.2632 10.7516 79.3626 11.0622 79.2916 11.3728L78.1695 15.9474C77.9991 16.6674 78.7803 17.2604 79.4336 16.8792L83.5669 14.4649C83.8367 14.3096 84.1634 14.3096 84.4333 14.4649L88.5665 16.8792C89.2199 17.2604 90.0011 16.6816 89.8306 15.9474L88.7228 11.3728C88.6517 11.0622 88.7512 10.7516 88.9926 10.5398L92.7282 7.27833C93.2679 6.78417 92.9554 5.86643 92.2168 5.79584Z" fill="#FC9B09"/>
<path d="M111.088 4.99917L111.088 4.99918L111.09 5.00547C111.289 5.46521 111.714 5.78225 112.214 5.82779C112.214 5.82782 112.214 5.82785 112.215 5.82788L117.169 6.29357C117.169 6.29358 117.17 6.29359 117.17 6.2936C117.487 6.32425 117.6 6.71223 117.394 6.90645L113.664 10.1632L113.663 10.1639C113.283 10.4972 113.123 10.9951 113.235 11.4843L113.235 11.4843L113.237 11.4905L114.344 16.0604C114.344 16.0611 114.344 16.0617 114.344 16.0623C114.414 16.3698 114.091 16.6066 113.818 16.4474L109.685 14.0331L109.685 14.0331L109.683 14.0315C109.258 13.7874 108.742 13.7874 108.317 14.0315L108.317 14.0315L108.315 14.0331L104.182 16.4474C103.913 16.6042 103.587 16.3609 103.656 16.0641C103.656 16.0636 103.656 16.0631 103.656 16.0625L104.777 11.4919L104.777 11.492L104.779 11.4843C104.891 10.9951 104.731 10.4972 104.351 10.1639L104.351 10.1632L100.617 6.90381C100.389 6.69772 100.516 6.32258 100.816 6.2936C100.816 6.29359 100.817 6.29358 100.817 6.29357L105.771 5.82788C105.771 5.82785 105.772 5.82782 105.772 5.82779C106.256 5.78373 106.712 5.47832 106.901 4.99286L108.66 0.719808L108.66 0.719814L108.661 0.716115C108.777 0.427962 109.194 0.427962 109.31 0.716115L109.31 0.716126L109.312 0.721118L111.088 4.99917Z" fill="#FC9B09" stroke="#FC9B09"/>
</svg>
