<svg width="31" height="29" viewBox="0 0 31 29" fill="none" xmlns="http://www.w3.org/2000/svg">
<path d="M20.3438 0.574219C14.8929 0.574219 10.419 4.33238 10.073 9.06615C4.88183 9.32655 0 13.0698 0 18.1328C0 20.2486 0.83725 22.2987 2.36133 23.9231C2.66288 25.1662 2.29676 26.4838 1.38832 27.3922C1.21519 27.5654 1.1634 27.8258 1.25706 28.0521C1.35072 28.2782 1.57138 28.4258 1.81641 28.4258C3.54317 28.4258 5.20727 27.7486 6.44375 26.5555C7.6483 26.966 9.21992 27.2148 10.6562 27.2148C16.1064 27.2148 20.5798 23.4576 20.9268 18.7248C22.1945 18.6685 23.513 18.4344 24.5563 18.0789C25.7927 19.2721 27.4568 19.9492 29.1836 19.9492C29.4286 19.9492 29.6493 19.8016 29.7429 19.5755C29.8366 19.3492 29.7848 19.0888 29.6117 18.9157C28.7032 18.0072 28.3371 16.6896 28.6387 15.4465C30.1628 13.8222 31 11.7721 31 9.65625C31 4.39553 25.7421 0.574219 20.3438 0.574219ZM10.6562 26.0039C9.22725 26.0039 7.59887 25.7234 6.50808 25.2894C6.27441 25.1962 6.00739 25.2575 5.83733 25.4431C5.10628 26.2423 4.15574 26.7995 3.12006 27.0557C3.69076 25.9623 3.83645 24.6733 3.48925 23.452C3.46181 23.3557 3.41096 23.2677 3.34119 23.196C1.96754 21.7812 1.21094 19.983 1.21094 18.1328C1.21094 13.8661 5.53625 10.2617 10.6562 10.2617C15.491 10.2617 19.7383 13.6237 19.7383 18.1328C19.7383 22.473 15.6641 26.0039 10.6562 26.0039ZM27.6588 14.7195C27.589 14.7914 27.5382 14.8794 27.5107 14.9754C27.1636 16.1967 27.3092 17.4857 27.8799 18.5791C26.8443 18.3232 25.8937 17.7657 25.1627 16.9666C24.9926 16.7812 24.7256 16.7197 24.4919 16.8128C23.5466 17.1889 22.198 17.4493 20.9249 17.5122C20.7479 15.2225 19.6058 13.0705 17.6532 11.4727H25.5508C25.8852 11.4727 26.1562 11.2016 26.1562 10.8672C26.1562 10.5328 25.8852 10.2617 25.5508 10.2617H15.793C14.4187 9.56212 12.8754 9.15414 11.287 9.06852C11.6349 5.00195 15.5641 1.78516 20.3438 1.78516C25.4637 1.78516 29.7891 5.38959 29.7891 9.65625C29.7891 11.5065 29.0325 13.3047 27.6588 14.7195Z" fill="#37373F"/>
</svg>
