<svg width="35" height="28" viewBox="0 0 35 28" fill="none" xmlns="http://www.w3.org/2000/svg">
<path d="M32.9492 5.33333H25.442L23.2746 1.1058C22.9248 0.423733 22.2219 0 21.4402 0H13.5598C12.7779 0 12.0751 0.423733 11.7254 1.10587L9.55801 5.33333H8.20312V4.66667C8.20312 3.56387 7.28314 2.66667 6.15234 2.66667H4.78516C3.65436 2.66667 2.73438 3.56387 2.73438 4.66667V5.33333H2.05078C0.91998 5.33333 0 6.23053 0 7.33333C0 9.145 0 25.2953 0 26C0 27.1028 0.91998 28 2.05078 28H32.9492C34.08 28 35 27.1028 35 26C35 24.1883 35 8.03807 35 7.33333C35 6.23053 34.08 5.33333 32.9492 5.33333ZM1.36719 11.9933H10.0113C9.1028 13.3774 8.61328 14.9995 8.61328 16.6667C8.61328 18.334 9.10287 19.9495 10.0112 21.3333H1.36719V11.9933ZM9.98047 16.6667C9.98047 12.5863 13.3841 9.33333 17.5 9.33333C21.6107 9.33333 25.0195 12.5813 25.0195 16.6667C25.0195 20.7475 21.6154 24 17.5 24C13.3809 24 9.98047 20.7439 9.98047 16.6667ZM26.3867 16.6667C26.3867 14.9994 25.8972 13.3841 24.9887 12H33.6328V21.3333H24.9887C25.8972 19.9493 26.3867 18.3339 26.3867 16.6667ZM12.9483 1.70213C13.0649 1.47467 13.2992 1.33333 13.5598 1.33333H21.4402C21.7008 1.33333 21.9352 1.47467 22.0518 1.70213L23.9135 5.33333H11.0865L12.9483 1.70213ZM4.10156 4.66667C4.10156 4.29907 4.40822 4 4.78516 4H6.15234C6.52928 4 6.83594 4.29907 6.83594 4.66667V5.33333H4.10156V4.66667ZM2.05078 6.66667C2.67155 6.66667 31.9882 6.66667 32.9492 6.66667C33.3262 6.66667 33.6328 6.96573 33.6328 7.33333V10.6667H23.9103C22.24 8.96853 19.9217 8 17.5 8C15.078 8 12.7595 8.9688 11.0896 10.6667H1.36719V7.33333C1.36719 6.96573 1.67385 6.66667 2.05078 6.66667ZM32.9492 26.6667H2.05078C1.67385 26.6667 1.36719 26.3676 1.36719 26V22.6667H11.0897C12.76 24.3648 15.0784 25.3333 17.5 25.3333C19.922 25.3333 22.2406 24.3645 23.9104 22.6667H33.6328V26C33.6328 26.3676 33.3262 26.6667 32.9492 26.6667Z" fill="#37373F"/>
</svg>
