<svg width="34" height="31" viewBox="0 0 34 31" fill="none" xmlns="http://www.w3.org/2000/svg">
<path d="M29.2623 25.237C31.7813 22.5264 33.1685 19.0684 33.1685 15.4999C33.1685 7.25239 25.9146 0.54248 16.9983 0.54248C8.08208 0.54248 0.828125 7.25239 0.828125 15.4999C0.828125 23.7475 8.08208 30.4574 16.9983 30.4574C20.8561 30.4574 24.5945 29.1742 27.5249 26.8441C27.789 26.6342 28.1852 26.6594 28.4164 26.8985C28.7292 26.6302 29.0311 26.351 29.3212 26.0616C29.0627 25.8478 29.0353 25.4813 29.2623 25.237ZM16.36 2.31376C16.36 1.98768 16.6458 1.72333 16.9983 1.72333C17.3508 1.72333 17.6366 1.98768 17.6366 2.31376V4.67546C17.6366 5.00153 17.3508 5.26588 16.9983 5.26588C16.6458 5.26588 16.36 5.00153 16.36 4.67546V2.31376ZM5.29621 16.0904H2.74302C2.39051 16.0904 2.10472 15.826 2.10472 15.4999C2.10472 15.1739 2.39051 14.9095 2.74302 14.9095H5.29621C5.64872 14.9095 5.93451 15.1739 5.93451 15.4999C5.93451 15.826 5.64872 16.0904 5.29621 16.0904ZM17.6366 28.6861C17.6366 29.0122 17.3508 29.2765 16.9983 29.2765C16.6458 29.2765 16.36 29.0122 16.36 28.6861V26.3244C16.36 25.9983 16.6458 25.734 16.9983 25.734C17.3508 25.734 17.6366 25.9983 17.6366 26.3244V28.6861ZM27.5297 8.26336L19.3034 15.8728C19.1116 16.8894 18.1514 17.6648 16.9983 17.6648C16.5845 17.6648 16.1958 17.5646 15.8582 17.3896L9.17893 23.5679C9.05434 23.6831 8.89093 23.7408 8.72761 23.7408C8.56429 23.7408 8.40089 23.6832 8.2763 23.5679C8.02702 23.3373 8.02702 22.9635 8.2763 22.733L14.9555 16.5547C14.8292 16.3461 14.7394 16.1165 14.6934 15.8728L9.17502 10.7683C8.92574 10.5378 8.92574 10.1639 9.17502 9.93339L10.9804 8.26343C11.2297 8.03285 11.6338 8.03285 11.883 8.26343L17.4014 13.3679C17.4285 13.3723 17.4554 13.3767 17.4822 13.382L18.352 12.5775C18.1029 12.3469 18.1029 11.9732 18.3522 11.7427L24.8217 5.75846C24.9413 5.64777 25.1037 5.5855 25.273 5.5855C25.4423 5.5855 25.6046 5.64769 25.7243 5.75846L27.5297 7.42842C27.779 7.65892 27.779 8.03278 27.5297 8.26336ZM28.7005 16.0904C28.348 16.0904 28.0622 15.826 28.0622 15.4999C28.0622 15.1739 28.348 14.9095 28.7005 14.9095H31.2537C31.6062 14.9095 31.892 15.1739 31.892 15.4999C31.892 15.826 31.6062 16.0904 31.2537 16.0904H28.7005Z" fill="#C7C7C7"/>
<path d="M29.2623 25.237C31.7813 22.5264 33.1685 19.0684 33.1685 15.4999C33.1685 7.25239 25.9146 0.54248 16.9983 0.54248C8.08208 0.54248 0.828125 7.25239 0.828125 15.4999C0.828125 23.7475 8.08208 30.4574 16.9983 30.4574C20.8561 30.4574 24.5945 29.1742 27.5249 26.8441C27.789 26.6342 28.1852 26.6594 28.4164 26.8985C28.7292 26.6302 29.0311 26.351 29.3212 26.0616C29.0627 25.8478 29.0353 25.4813 29.2623 25.237ZM16.36 2.31376C16.36 1.98768 16.6458 1.72333 16.9983 1.72333C17.3508 1.72333 17.6366 1.98768 17.6366 2.31376V4.67546C17.6366 5.00153 17.3508 5.26588 16.9983 5.26588C16.6458 5.26588 16.36 5.00153 16.36 4.67546V2.31376ZM5.29621 16.0904H2.74302C2.39051 16.0904 2.10472 15.826 2.10472 15.4999C2.10472 15.1739 2.39051 14.9095 2.74302 14.9095H5.29621C5.64872 14.9095 5.93451 15.1739 5.93451 15.4999C5.93451 15.826 5.64872 16.0904 5.29621 16.0904ZM17.6366 28.6861C17.6366 29.0122 17.3508 29.2765 16.9983 29.2765C16.6458 29.2765 16.36 29.0122 16.36 28.6861V26.3244C16.36 25.9983 16.6458 25.734 16.9983 25.734C17.3508 25.734 17.6366 25.9983 17.6366 26.3244V28.6861ZM27.5297 8.26336L19.3034 15.8728C19.1116 16.8894 18.1514 17.6648 16.9983 17.6648C16.5845 17.6648 16.1958 17.5646 15.8582 17.3896L9.17893 23.5679C9.05434 23.6831 8.89093 23.7408 8.72761 23.7408C8.56429 23.7408 8.40089 23.6832 8.2763 23.5679C8.02702 23.3373 8.02702 22.9635 8.2763 22.733L14.9555 16.5547C14.8292 16.3461 14.7394 16.1165 14.6934 15.8728L9.17502 10.7683C8.92574 10.5378 8.92574 10.1639 9.17502 9.93339L10.9804 8.26343C11.2297 8.03285 11.6338 8.03285 11.883 8.26343L17.4014 13.3679C17.4285 13.3723 17.4554 13.3767 17.4822 13.382L18.352 12.5775C18.1029 12.3469 18.1029 11.9732 18.3522 11.7427L24.8217 5.75846C24.9413 5.64777 25.1037 5.5855 25.273 5.5855C25.4423 5.5855 25.6046 5.64769 25.7243 5.75846L27.5297 7.42842C27.779 7.65892 27.779 8.03278 27.5297 8.26336ZM28.7005 16.0904C28.348 16.0904 28.0622 15.826 28.0622 15.4999C28.0622 15.1739 28.348 14.9095 28.7005 14.9095H31.2537C31.6062 14.9095 31.892 15.1739 31.892 15.4999C31.892 15.826 31.6062 16.0904 31.2537 16.0904H28.7005Z" fill="url(#paint0_linear)"/>
<defs>
<linearGradient id="paint0_linear" x1="16.9983" y1="0.54248" x2="16.9983" y2="30.4574" gradientUnits="userSpaceOnUse">
<stop stop-color="white"/>
<stop offset="1" stop-color="white" stop-opacity="0"/>
</linearGradient>
</defs>
</svg>
