<svg width="31" height="20" fill="none" xmlns="http://www.w3.org/2000/svg"><path d="M24.852 6.277a3.69 3.69 0 00-3.692-3.691 3.69 3.69 0 00-3.692 3.691A3.69 3.69 0 0021.16 9.97a3.69 3.69 0 003.692-3.692zM20.957 8.8c-.102 0-.153-.057-.153-.159V8.4c0-.178-.006-.185-.178-.21a2.217 2.217 0 01-.629-.178c-.152-.076-.171-.114-.127-.28.032-.12.064-.24.102-.362.044-.14.082-.159.21-.089.216.115.45.178.692.21.159.02.312.006.458-.057.273-.12.31-.432.082-.623a.968.968 0 00-.26-.152c-.235-.102-.49-.185-.712-.318-.362-.216-.597-.521-.572-.96.032-.501.312-.813.775-.984.191-.07.191-.064.191-.267v-.203c.006-.153.032-.178.178-.178h.14c.317 0 .317 0 .317.317 0 .223 0 .223.223.26.171.026.337.077.495.147.09.038.121.102.096.19-.038.14-.077.274-.121.414-.045.127-.083.146-.203.089a1.514 1.514 0 00-.782-.153.61.61 0 00-.21.045c-.235.101-.273.362-.076.527.102.083.216.14.337.19.21.09.42.172.616.28.636.35.807 1.144.356 1.69-.159.197-.368.33-.616.394-.108.032-.153.083-.153.197.007.108 0 .216 0 .324 0 .095-.05.153-.146.153-.095-.007-.216-.007-.33-.013z" fill="#FC9B09"/><path d="M15.796 7.485a1.023 1.023 0 100-2.046 1.023 1.023 0 000 2.046zm10.746 0a1.023 1.023 0 100-2.046 1.023 1.023 0 000 2.046z" fill="#37373F"/><path d="M29.323.254H13.242c-.928 0-1.684.756-1.684 1.684v5.617a14.584 14.584 0 011.442 0V3.76a1.71 1.71 0 002.078-2.078H27.6c-.019.102-.032.21-.032.312a1.71 1.71 0 002.008 1.684v5.178a1.71 1.71 0 00-2.008 1.684c0 .108.013.21.032.311h-8.978v1.443h10.694c.927 0 1.683-.756 1.683-1.684V1.938A1.677 1.677 0 0029.323.254z" fill="#37373F"/><path d="M1.716 8.482c.927.35 2.153.54 3.45.54.686 0 1.353-.057 1.963-.158a5.097 5.097 0 011.322-.7 9.582 9.582 0 011.88-.463V2.294c0-.502-.298-1.214-1.715-1.748C7.688.191 6.462 0 5.166 0c-1.297 0-2.523.19-3.45.54C.299 1.067 0 1.78 0 2.287v11.119c0 .502.299 1.214 1.716 1.748.927.35 2.153.54 3.45.54.28 0 .552-.007.826-.026v-1.136c-.267.018-.547.03-.826.03-1.163 0-2.25-.164-3.05-.463-.794-.299-.979-.597-.979-.673v-.718c.166.088.362.171.579.254.927.35 2.153.54 3.45.54.28 0 .552-.007.826-.026v-1.168c-.267.018-.547.031-.826.031-1.163 0-2.25-.165-3.05-.464-.794-.298-.979-.597-.979-.673v-.712c.166.09.362.172.579.254.927.35 2.153.54 3.45.54.28 0 .552-.006.826-.025v-.273c0-.254.038-.585.19-.94-.33.031-.667.044-1.016.044-1.163 0-2.25-.165-3.05-.464-.794-.299-.979-.597-.979-.674v-.711c.172.07.362.159.579.241zm.4-6.874c.807-.3 1.893-.464 3.05-.464 1.162 0 2.249.165 3.05.464.768.285.959.571.972.667v.019c-.013.095-.204.38-.973.667-.806.298-1.893.464-3.05.464-1.162 0-2.249-.166-3.05-.464-.793-.299-.978-.597-.978-.674 0-.076.185-.387.979-.68zm-.979 2.16c.166.089.362.171.579.254.927.35 2.153.54 3.45.54 1.296 0 2.522-.19 3.45-.54.216-.083.406-.165.578-.254v.718c-.013.095-.203.381-.972.667-.807.299-1.894.464-3.05.464-1.163 0-2.25-.165-3.05-.464-.794-.299-.978-.597-.978-.674v-.711h-.007zm0 2.23c.166.089.362.172.579.254.927.35 2.153.54 3.45.54 1.296 0 2.522-.19 3.45-.54.216-.082.406-.165.578-.254v.718c-.013.095-.203.381-.972.667-.807.299-1.894.464-3.05.464-1.163 0-2.25-.165-3.05-.464-.794-.299-.978-.597-.978-.673v-.712h-.007z" fill="#FC9B09"/><path d="M15.756 9.226c-.928-.35-2.154-.54-3.45-.54-1.296 0-2.523.19-3.45.54-1.417.527-1.716 1.239-1.716 1.747v6.671c0 .502.299 1.214 1.716 1.748.927.35 2.154.54 3.45.54 1.296 0 2.522-.19 3.45-.54 1.417-.528 1.715-1.24 1.715-1.748v-6.67c.007-.502-.292-1.214-1.715-1.747zm-6.5 1.073c.807-.298 1.893-.463 3.05-.463 1.163 0 2.249.165 3.05.463.768.286.965.572.972.668v.019c-.013.095-.204.38-.972.667-.807.298-1.894.464-3.05.464-1.163 0-2.25-.166-3.05-.464-.794-.299-.979-.598-.979-.674 0-.076.178-.387.979-.68zm6.106 8.006c-.807.299-1.893.464-3.05.464-1.163 0-2.25-.165-3.05-.464-.794-.298-.978-.597-.978-.673v-.712c.165.089.362.172.578.254.928.35 2.154.54 3.45.54 1.296 0 2.523-.19 3.45-.54a5.6 5.6 0 00.578-.254v.712c-.006.076-.184.375-.978.673zm.972-2.903v.006c-.013.095-.203.381-.972.667-.807.299-1.893.464-3.05.464-1.163 0-2.25-.165-3.05-.464-.794-.299-.978-.597-.978-.673v-.712c.165.089.362.171.578.254.928.35 2.154.54 3.45.54 1.296 0 2.523-.19 3.45-.54a5.6 5.6 0 00.578-.254l-.006.712zm0-2.23v.006c-.013.095-.203.38-.972.667-.807.298-1.893.464-3.05.464-1.163 0-2.25-.165-3.05-.464-.794-.299-.978-.597-.978-.674v-.711c.165.089.362.171.578.254.928.35 2.154.54 3.45.54 1.296 0 2.523-.19 3.45-.54.216-.083.407-.165.578-.254l-.006.711z" fill="#37373F"/></svg>