<svg width="17" height="17" fill="none" xmlns="http://www.w3.org/2000/svg"><path d="M14.983.575a.511.511 0 00-.722 0L9.085 5.75a.51.51 0 00.722.723l4.815-4.815.722.722-5.708 5.708a1.879 1.879 0 00-1.247-.92l-.064-.012L3.91 2.741a.51.51 0 00-.722 0L1.744 4.186a.51.51 0 000 .722l4.414 4.414c.037.211.109.41.21.59l-5.343 5.343a.51.51 0 10.722.723l5.343-5.344a1.875 1.875 0 002.756-1.312l6.581-6.58c.2-.2.2-.523 0-.723L14.983.575zM7.09 7.365c-.302.17-.553.42-.722.723L2.827 4.547l.722-.722 3.541 3.54zM7.151 9a.852.852 0 011.702 0 .852.852 0 01-1.702 0z" fill="#37373F"/></svg>