<svg width="26" height="26" fill="none" xmlns="http://www.w3.org/2000/svg"><path d="M22.81 21.421a12.927 12.927 0 003.125-8.42c0-7.134-5.803-12.937-12.936-12.937S.062 5.867.062 13 5.867 25.936 13 25.936c3.086 0 6.077-1.11 8.42-3.125a.51.51 0 01.714.047c.25-.232.492-.473.724-.723a.51.51 0 01-.047-.714zM12.488 1.596a.51.51 0 011.021 0v2.042a.51.51 0 11-1.021 0V1.596zM3.637 13.51H1.594a.51.51 0 010-1.021h2.043a.51.51 0 110 1.02zm9.872 10.893a.51.51 0 11-1.021 0v-2.042a.51.51 0 011.021 0v2.042zM21.424 6.74l-6.581 6.582a1.875 1.875 0 01-2.757 1.311l-5.343 5.344a.51.51 0 01-.722 0 .51.51 0 010-.722l5.343-5.344a1.86 1.86 0 01-.21-.59L6.74 8.909a.51.51 0 010-.722l1.444-1.444c.2-.2.523-.2.722 0l4.415 4.414.065.012.696-.695a.51.51 0 010-.722l5.175-5.176a.511.511 0 01.722 0l1.445 1.444c.2.2.2.523 0 .722zm.936 6.77a.51.51 0 010-1.021h2.043a.51.51 0 110 1.02H22.36z" fill="#fff"/></svg>