<svg width="28" height="28" fill="none" xmlns="http://www.w3.org/2000/svg"><path d="M14.004.042C6.308.042.047 6.304.047 14c0 7.696 6.261 13.957 13.957 13.957a13.95 13.95 0 009.087-3.371.51.51 0 00.055-.72l-.007-.008a.51.51 0 00-.713-.047 12.926 12.926 0 01-8.422 3.125C6.871 26.936 1.068 21.133 1.068 14S6.871 1.064 14.004 1.064 26.941 6.867 26.941 14c0 3.086-1.11 6.077-3.125 8.421a.51.51 0 00.047.713l.007.007a.51.51 0 00.72-.054A13.949 13.949 0 0027.962 14C27.962 6.304 21.7.042 14.004.042z" fill="#37373F"/></svg>