<svg width="30" height="30" fill="none" xmlns="http://www.w3.org/2000/svg"><path d="M15.002.021C6.742.021.023 6.741.023 15.001c0 8.258 6.72 14.978 14.98 14.978 8.259 0 14.978-6.72 14.978-14.979C29.98 6.74 23.26.021 15.002.021zm10.586 24.066a.51.51 0 01-.72.055l-.008-.007c-.232.25-.473.491-.723.723l.006.008a.51.51 0 01-.054.72 13.948 13.948 0 01-9.087 3.372C7.306 28.958 1.045 22.696 1.045 15c0-7.696 6.261-13.957 13.957-13.957C22.698 1.043 28.96 7.304 28.96 15a13.95 13.95 0 01-3.372 9.087z" fill="#FC9B09"/></svg>