<svg width="15" height="15" fill="none" xmlns="http://www.w3.org/2000/svg"><path fill-rule="evenodd" clip-rule="evenodd" d="M13.671 1.471H11.79V.603a.432.432 0 10-.864 0v.868H8.318V.603a.432.432 0 00-.864 0v.868H4.846V.603a.432.432 0 00-.864 0v.868H2.1A1.157 1.157 0 00.943 2.63V12.9A1.157 1.157 0 002.1 14.058h11.571A1.157 1.157 0 0014.83 12.9V2.629a1.157 1.157 0 00-1.16-1.159zm.286 11.429a.285.285 0 01-.286.29H2.1a.291.291 0 01-.293-.29V2.629a.292.292 0 01.293-.29h1.882v.868a.432.432 0 00.864 0V2.34h2.608v.868a.432.432 0 00.864 0V2.34h2.607v.868a.432.432 0 00.864 0V2.34h1.882a.285.285 0 01.286.29V12.9zM3.982 5.378h1.736v1.301H3.982V5.378zm0 2.17h1.736v1.301H3.982V7.547zm0 2.17h1.736v1.3H3.982v-1.3zm3.032 0H8.75v1.3H7.014v-1.3zm0-2.17H8.75v1.301H7.014V7.547zm0-2.17H8.75v1.301H7.014V5.378zm3.04 4.34h1.735v1.3h-1.736v-1.3zm0-2.17h1.735v1.301h-1.736V7.547zm0-2.17h1.735v1.301h-1.736V5.378z" fill="#FC9B09"/></svg>