<svg width="18" height="18" fill="none" xmlns="http://www.w3.org/2000/svg"><path fill-rule="evenodd" clip-rule="evenodd" d="M16.5 1.685h-2.44V.56a.56.56 0 00-1.12 0v1.125H9.56V.56a.56.56 0 00-1.12 0v1.125H5.06V.56a.56.56 0 00-1.12 0v1.125H1.5a1.5 1.5 0 00-1.5 1.5V16.5A1.5 1.5 0 001.5 18h15a1.5 1.5 0 001.5-1.5V3.185a1.5 1.5 0 00-1.5-1.5zm.37 14.815a.37.37 0 01-.37.375h-15a.378.378 0 01-.38-.375V3.185a.378.378 0 01.38-.375h2.44v1.125a.56.56 0 001.12 0V2.81h3.38v1.125a.56.56 0 001.12 0V2.81h3.38v1.125a.56.56 0 001.12 0V2.81h2.44a.37.37 0 01.37.375V16.5zM3.94 6.749h2.25v1.687H3.94V6.749zm0 2.812h2.25v1.688H3.94V9.561zm0 2.813h2.25v1.688H3.94v-1.688zm3.93 0h2.25v1.688H7.87v-1.688zm0-2.813h2.25v1.688H7.87V9.561zm0-2.812h2.25v1.687H7.87V6.749zm3.94 5.625h2.25v1.688h-2.25v-1.688zm0-2.813h2.25v1.688h-2.25V9.561zm0-2.812h2.25v1.687h-2.25V6.749z" fill="#83888A"/></svg>