<svg width="118" height="17" fill="none" xmlns="http://www.w3.org/2000/svg"><path d="M17.217 5.796L12.26 5.33a.857.857 0 01-.71-.522L9.774.529c-.284-.705-1.292-.705-1.576 0L6.436 4.808a.838.838 0 01-.71.522L.77 5.796c-.738.07-1.037.988-.483 1.482l3.736 3.262c.241.212.34.522.27.833L3.17 15.947c-.17.72.61 1.313 1.264.932l4.133-2.414a.864.864 0 01.866 0l4.133 2.414a.853.853 0 001.265-.932l-1.108-4.574a.841.841 0 01.27-.833l3.735-3.262c.54-.494.227-1.412-.511-1.482zm25 0L37.26 5.33a.857.857 0 01-.71-.522L34.774.529c-.284-.705-1.292-.705-1.576 0l-1.762 4.279a.838.838 0 01-.71.522l-4.957.466c-.738.07-1.037.988-.483 1.482l3.736 3.262c.241.212.34.522.27.833l-1.123 4.574c-.17.72.611 1.313 1.265.932l4.133-2.414a.864.864 0 01.866 0l4.133 2.414a.853.853 0 001.265-.932l-1.108-4.574a.841.841 0 01.27-.833l3.735-3.262c.54-.494.227-1.412-.511-1.482zm25 0L62.26 5.33a.857.857 0 01-.71-.522L59.774.529c-.284-.705-1.292-.705-1.576 0l-1.762 4.279a.838.838 0 01-.71.522l-4.957.466c-.738.07-1.037.988-.483 1.482l3.736 3.262c.241.212.34.522.27.833l-1.123 4.574c-.17.72.611 1.313 1.265.932l4.133-2.414a.864.864 0 01.866 0l4.133 2.414a.853.853 0 001.265-.932l-1.108-4.574a.841.841 0 01.27-.833l3.735-3.262c.54-.494.227-1.412-.511-1.482zm25 0L87.26 5.33a.857.857 0 01-.71-.522L84.774.529c-.284-.705-1.292-.705-1.576 0l-1.762 4.279a.838.838 0 01-.71.522l-4.957.466c-.739.07-1.037.988-.483 1.482l3.736 3.262c.241.212.34.522.27.833l-1.123 4.574c-.17.72.611 1.313 1.265.932l4.133-2.414a.864.864 0 01.866 0l4.133 2.414a.853.853 0 001.265-.932l-1.108-4.574a.841.841 0 01.27-.833l3.735-3.262c.54-.494.227-1.412-.511-1.482z" fill="#FC9B09"/><path d="M111.088 5h0l.002.005a1.359 1.359 0 001.125.823l4.954.466h.001c.317.03.43.418.224.612l-3.73 3.257h-.001c-.38.334-.54.832-.428 1.321h0l.002.007 1.107 4.57v.001a.353.353 0 01-.526.385l-4.133-2.414h0l-.002-.002a1.366 1.366 0 00-1.366 0h0l-.002.002-4.133 2.414a.356.356 0 01-.526-.383v-.002l1.121-4.57h0l.002-.008a1.341 1.341 0 00-.428-1.32h0l-3.734-3.26a.351.351 0 01.199-.61h.001l4.954-.466h.001a1.34 1.34 0 001.129-.835L108.66.72h0l.001-.004a.352.352 0 01.649 0h0l.002.005L111.088 5z" fill="#FC9B09" stroke="#FC9B09"/></svg>