<svg height="512" width="512" xmlns="http://www.w3.org/2000/svg"><linearGradient id="a" gradientUnits="userSpaceOnUse" x1="127.979" x2="388.949" y1="357.587" y2="96.617"><stop offset=".011" stop-color="#f8c73f"/><stop offset="1" stop-color="#fada7f"/></linearGradient><linearGradient id="b" gradientUnits="userSpaceOnUse" x1="384.01" x2="467.104" y1="257.881" y2="174.786"><stop offset=".011" stop-color="#606082"/><stop offset="1" stop-color="#83839e"/></linearGradient><g data-name="11-helicopter"><path d="M432.129 368.786a12 12 0 01-11.383-8.208l-16-48a12 12 0 1122.769-7.59l16 48a12.009 12.009 0 01-11.386 15.8z" fill="#717190"/><path d="M480.13 368.783h-144a12 12 0 01-11.384-8.205l-16-48a12 12 0 1122.769-7.59l13.264 39.8H480.13a12 12 0 010 24z" fill="#a6a6b9"/><path d="M304.13 160.783a12 12 0 01-12-12v-96a12 12 0 0124 0v96a12 12 0 01-12 12z" fill="#717190"/><path d="M496.13 80.783h-384a12 12 0 010-24h384a12 12 0 010 24z" fill="#cacad5"/><path d="M506.549 254.829l-50.179-87.815a60.133 60.133 0 00-52.1-30.231H269.8a59.67 59.67 0 00-53.665 33.167l-15.417 30.833H37.055l-9.783-24.457a12 12 0 10-22.283 8.913l32 80a12.082 12.082 0 0011.218 7.544H220.13l48 36a60.378 60.378 0 0036 12h141.4a59.925 59.925 0 0056.921-41.027l5.06-15.178a12 12 0 00-.962-9.749z" fill="url(#a)"/><path d="M456.37 167.014a59.726 59.726 0 00-6.331-9.014h-96.816a12 12 0 00-11.029 16.727l26.439 61.691a59.931 59.931 0 0055.148 36.365h80.952l.061-.044 2.721-8.161a12 12 0 00-.966-9.749z" fill="url(#b)"/></g></svg>